<?xml version="1.0" encoding="UTF-8"?>
<svg xmlns="http://www.w3.org/2000/svg" xmlns:xlink="http://www.w3.org/1999/xlink" viewBox="0 0 20 20" width="20px" height="20px">
<g id="surface18857356">
<path style=" stroke:none;fill-rule:nonzero;fill:rgb(35.686275%,84.705883%,46.666667%);fill-opacity:1;" d="M 10.003906 8.789062 L 10.003906 11.417969 L 13.746094 11.417969 C 13.257812 13.007812 11.925781 14.148438 10.003906 14.148438 C 7.710938 14.148438 5.855469 12.289062 5.855469 10 C 5.855469 7.710938 7.710938 5.851562 10.003906 5.851562 C 11.03125 5.851562 11.972656 6.230469 12.699219 6.851562 L 14.632812 4.917969 C 13.410156 3.804688 11.785156 3.125 10.003906 3.125 C 6.203125 3.125 3.125 6.203125 3.125 10 C 3.125 13.796875 6.203125 16.875 10.003906 16.875 C 15.773438 16.875 17.046875 11.476562 16.480469 8.800781 Z M 10.003906 8.789062 "/>
</g>
</svg>
