<?xml version="1.0" encoding="UTF-8"?>
<svg xmlns="http://www.w3.org/2000/svg" xmlns:xlink="http://www.w3.org/1999/xlink" viewBox="0 0 20 20" width="20px" height="20px">
<g id="surface18859155">
<path style=" stroke:none;fill-rule:nonzero;fill:rgb(35.686275%,84.705883%,46.666667%);fill-opacity:1;" d="M 20 3.582031 C 19.25 3.914062 18.5 4.167969 17.667969 4.25 C 18.5 3.75 19.167969 2.917969 19.5 2 C 18.664062 2.5 17.832031 2.832031 16.917969 3 C 16.082031 2.167969 15 1.667969 13.835938 1.667969 C 11.582031 1.667969 9.75 3.5 9.75 5.75 C 9.75 6.082031 9.75 6.414062 9.832031 6.667969 C 6.414062 6.5 3.417969 4.914062 1.414062 2.414062 C 1 3 0.832031 3.75 0.832031 4.5 C 0.832031 5.917969 1.582031 7.167969 2.664062 7.917969 C 2 7.832031 1.335938 7.667969 0.832031 7.414062 C 0.832031 7.414062 0.832031 7.414062 0.832031 7.5 C 0.832031 9.5 2.25 11.164062 4.082031 11.5 C 3.75 11.582031 3.417969 11.667969 3 11.667969 C 2.75 11.667969 2.5 11.667969 2.25 11.582031 C 2.75 13.25 4.25 14.417969 6.082031 14.417969 C 4.667969 15.5 2.917969 16.164062 1 16.164062 C 0.667969 16.164062 0.332031 16.164062 0 16.085938 C 1.832031 17.25 4 17.917969 6.25 17.917969 C 13.835938 17.917969 17.917969 11.667969 17.917969 6.25 C 17.917969 6.085938 17.917969 5.917969 17.917969 5.75 C 18.75 5.167969 19.417969 4.417969 20 3.585938 "/>
</g>
</svg>
